# Blender v2.79 (sub 0) OBJ File: 'pillar.blend'
# www.blender.org
mtllib pillar.mtl
o sponza_10_sponza_10_column_a
v -1.158574 6.647266 1.147140
v 1.147766 6.647266 1.147140
v 1.147766 6.647266 -1.155477
v -1.158574 6.647266 -1.155477
v -1.158574 6.253993 1.147138
v -1.158574 6.406699 1.147138
v -1.158574 6.406699 -1.155477
v -1.158574 6.253994 -1.155477
v 1.147766 6.253993 1.147138
v 1.147766 6.406699 1.147138
v 1.147766 6.253994 -1.155477
v 1.147766 6.406699 -1.155477
v 1.082057 6.139951 -1.089873
v -1.092864 6.139951 -1.089873
v 1.082057 6.139951 1.081539
v -1.092864 6.139951 1.081539
v 0.915989 6.052516 -0.924075
v -0.926796 6.052516 -0.924075
v 0.915989 6.052516 0.915738
v -0.926796 6.052516 0.915738
v 0.776382 -0.056468 0.322549
v 0.776382 5.616892 0.322551
v 0.323172 5.616892 0.775758
v 0.323172 -0.056468 0.775756
v 0.776382 -0.056468 -0.318386
v 0.776382 5.616892 -0.318384
v 0.323172 -0.056468 -0.771593
v 0.323172 5.616892 -0.771592
v -0.317759 -0.056468 -0.771593
v -0.317759 5.616892 -0.771592
v -0.770969 -0.056468 -0.318386
v -0.770969 5.616892 -0.318384
v -0.770969 -0.056468 0.322549
v -0.770969 5.616892 0.322551
v -0.317759 -0.056468 0.775756
v -0.317759 5.616892 0.775758
v 0.776382 5.754133 0.322551
v 0.823617 5.792356 0.342117
v 0.342738 5.792356 0.822996
v 0.323172 5.754133 0.775758
v 0.776382 5.754133 -0.318384
v 0.823617 5.792356 -0.337950
v 0.323172 5.754133 -0.771592
v 0.342738 5.792356 -0.818830
v -0.317759 5.754133 -0.771592
v -0.337325 5.792356 -0.818830
v -0.770969 5.754133 -0.318384
v -0.818203 5.792356 -0.337950
v -0.770969 5.754133 0.322551
v -0.818203 5.792356 0.342117
v -0.317759 5.754133 0.775758
v -0.337325 5.792356 0.822996
v 0.790929 5.907028 0.328578
v 0.843750 5.995165 0.350457
v 0.351075 5.995165 0.843126
v 0.329199 5.907028 0.790308
v 0.790929 5.907028 -0.324408
v 0.843750 5.995165 -0.346287
v 0.329199 5.907028 -0.786141
v 0.351075 5.995165 -0.838959
v -0.323785 5.907028 -0.786141
v -0.345665 5.995165 -0.838959
v -0.785515 5.907028 -0.324408
v -0.838335 5.995165 -0.346287
v -0.785515 5.907028 0.328578
v -0.838335 5.995165 0.350457
v -0.323785 5.907028 0.790308
v -0.345665 5.995165 0.843126
v 0.851235 5.685514 0.353556
v 0.354177 5.685514 0.850611
v 0.851235 5.685514 -0.349389
v 0.354177 5.685514 -0.846447
v -0.348767 5.685514 -0.846444
v -0.845821 5.685514 -0.349389
v -0.845821 5.685514 0.353556
v -0.348767 5.685514 0.850611
v 0.330924 5.830579 0.794472
v 0.795093 5.830579 0.330303
v 0.795093 5.830579 -0.326136
v 0.330924 5.830579 -0.790305
v -0.325511 5.830579 -0.790305
v -0.789680 5.830579 -0.326136
v -0.789680 5.830579 0.330303
v -0.325511 5.830579 0.794472
v -1.130720 6.406699 1.119282
v -1.130720 6.473632 1.119282
v -1.130720 6.473632 -1.127622
v -1.130720 6.406699 -1.127622
v 1.119907 6.406699 1.119282
v 1.119907 6.473632 1.119282
v 1.119907 6.406699 -1.127622
v 1.119907 6.473632 -1.127622
v -1.158574 6.473632 -1.155477
v -1.158574 6.473632 1.147138
v 1.147766 6.473632 1.147138
v 1.147766 6.473632 -1.155477
vt 0.105200 0.713600
vt 0.296900 0.713600
vt 0.296900 0.905000
vt 0.105200 0.905000
vt 0.057900 0.255900
vt 0.041900 0.255900
vt 0.041900 0.014900
vt 0.057900 0.014900
vt 0.057700 0.494400
vt 0.041900 0.494400
vt 0.057700 0.732500
vt 0.041900 0.732500
vt 0.057900 0.974000
vt 0.041900 0.974000
vt 0.069800 0.739400
vt 0.069800 0.967100
vt 0.069400 0.501200
vt 0.069400 0.725700
vt 0.069400 0.262700
vt 0.069400 0.487600
vt 0.069800 0.021700
vt 0.069800 0.249100
vt 0.087100 0.756800
vt 0.087100 0.949700
vt 0.086600 0.518300
vt 0.086600 0.708600
vt 0.086600 0.279900
vt 0.086600 0.470400
vt 0.087200 0.039100
vt 0.087200 0.231700
vt 0.892700 0.008600
vt 0.892700 0.900300
vt 0.821500 0.900300
vt 0.821500 0.008600
vt 0.993500 0.008600
vt 0.993500 0.900300
vt 0.376800 0.008600
vt 0.376800 0.900300
vt 0.305600 0.900300
vt 0.305600 0.008600
vt 0.477500 0.008600
vt 0.477500 0.900300
vt 0.548800 0.008600
vt 0.548800 0.900300
vt 0.649500 0.008600
vt 0.649500 0.900300
vt 0.720700 0.008600
vt 0.720700 0.900300
vt 0.242800 0.941400
vt 0.242800 0.949300
vt 0.135600 0.949300
vt 0.135600 0.941400
vt 0.350000 0.941400
vt 0.350000 0.949300
vt 0.457100 0.941400
vt 0.457100 0.949300
vt 0.564300 0.941400
vt 0.564300 0.949300
vt 0.671500 0.941400
vt 0.671500 0.949300
vt 0.778700 0.941400
vt 0.778700 0.949300
vt 0.885900 0.941400
vt 0.885900 0.949300
vt 0.993100 0.941400
vt 0.993100 0.949300
vt 0.242800 0.972700
vt 0.242800 0.990800
vt 0.135600 0.990800
vt 0.135600 0.972700
vt 0.350000 0.972700
vt 0.350000 0.990800
vt 0.457100 0.972700
vt 0.457100 0.990800
vt 0.564300 0.972700
vt 0.564300 0.990800
vt 0.671500 0.972700
vt 0.671500 0.990800
vt 0.778700 0.972700
vt 0.778700 0.990800
vt 0.885900 0.972700
vt 0.885900 0.990800
vt 0.993100 0.972700
vt 0.993100 0.990800
vt 0.094100 0.576800
vt 0.094100 0.648800
vt 0.145000 0.525800
vt 0.094100 0.340000
vt 0.094100 0.412000
vt 0.096400 0.172500
vt 0.148000 0.224100
vt 0.096400 0.099600
vt 0.148000 0.048000
vt 0.096100 0.815900
vt 0.096100 0.888900
vt 0.145000 0.699800
vt 0.242800 0.927400
vt 0.135600 0.927400
vt 0.135600 0.913300
vt 0.242800 0.913300
vt 0.350000 0.927400
vt 0.350000 0.913300
vt 0.457100 0.927400
vt 0.457100 0.913300
vt 0.564300 0.927400
vt 0.564300 0.913300
vt 0.671500 0.927400
vt 0.671500 0.913300
vt 0.778700 0.927400
vt 0.778700 0.913300
vt 0.885900 0.927400
vt 0.885900 0.913300
vt 0.993100 0.927400
vt 0.993100 0.913300
vt 0.135600 0.957100
vt 0.242800 0.957100
vt 0.350000 0.957100
vt 0.457100 0.957100
vt 0.564300 0.957100
vt 0.671500 0.957100
vt 0.778700 0.957100
vt 0.885900 0.957100
vt 0.993100 0.957100
vt 0.038900 0.255900
vt 0.031800 0.255900
vt 0.031800 0.017800
vt 0.038900 0.017800
vt 0.038900 0.494400
vt 0.031800 0.494400
vt 0.038900 0.732500
vt 0.031800 0.732500
vt 0.038900 0.971000
vt 0.031800 0.971000
vt 0.005900 0.738500
vt 0.005900 0.494500
vt 0.024300 0.494500
vt 0.024300 0.738500
vt 0.005900 0.982900
vt 0.024300 0.982900
vt 0.005900 0.250100
vt 0.005900 0.006100
vt 0.024300 0.006100
vt 0.024300 0.250100
vt 0.027200 0.497400
vt 0.027200 0.735500
vt 0.027200 0.253000
vt 0.027200 0.491500
vt 0.027200 0.009000
vt 0.027200 0.247100
vt 0.027200 0.741400
vt 0.027200 0.979900
vn -0.5773 0.5773 0.5774
vn 0.5773 0.5773 0.5774
vn 0.5774 0.5774 -0.5774
vn -0.5774 0.5774 -0.5774
vn -0.6757 -0.2951 0.6756
vn -0.5774 0.5773 0.5774
vn -0.5774 0.5773 -0.5774
vn -0.6757 -0.2951 -0.6756
vn 0.6757 -0.2951 0.6756
vn 0.5774 0.5773 0.5774
vn 0.6757 -0.2951 -0.6756
vn 0.5774 0.5774 -0.5773
vn 0.4624 -0.7564 -0.4627
vn -0.4624 -0.7564 -0.4627
vn 0.4624 -0.7564 0.4627
vn -0.4624 -0.7564 0.4627
vn 0.2170 -0.9516 -0.2177
vn -0.2162 -0.9520 -0.2165
vn 0.2180 -0.9512 0.2183
vn -0.2172 -0.9517 0.2171
vn 0.9239 -0.0000 0.3827
vn 0.8177 -0.4655 0.3387
vn 0.3387 -0.4655 0.8177
vn 0.3827 -0.0000 0.9239
vn 0.9239 0.0000 -0.3827
vn 0.8177 -0.4655 -0.3387
vn 0.3827 0.0000 -0.9239
vn 0.3387 -0.4655 -0.8177
vn -0.3827 0.0000 -0.9239
vn -0.3387 -0.4655 -0.8177
vn -0.9239 0.0000 -0.3827
vn -0.8177 -0.4655 -0.3387
vn -0.9239 -0.0000 0.3827
vn -0.8177 -0.4655 0.3387
vn -0.3827 -0.0000 0.9239
vn -0.3387 -0.4655 0.8177
vn 0.9232 -0.0384 0.3824
vn 0.9186 -0.1071 0.3805
vn 0.3805 -0.1071 0.9186
vn 0.3824 -0.0384 0.9232
vn 0.9232 -0.0384 -0.3824
vn 0.9186 -0.1071 -0.3805
vn 0.3824 -0.0384 -0.9232
vn 0.3805 -0.1071 -0.9186
vn -0.3824 -0.0384 -0.9232
vn -0.3805 -0.1071 -0.9186
vn -0.9232 -0.0384 -0.3824
vn -0.9186 -0.1071 -0.3805
vn -0.9232 -0.0384 0.3824
vn -0.9186 -0.1071 0.3805
vn -0.3824 -0.0385 0.9232
vn -0.3805 -0.1071 0.9186
vn 0.8879 -0.2764 0.3678
vn 0.6388 -0.7551 0.1476
vn 0.1476 -0.7559 0.6378
vn 0.3678 -0.2764 0.8879
vn 0.8879 -0.2764 -0.3678
vn 0.6389 -0.7551 -0.1473
vn 0.3678 -0.2764 -0.8879
vn 0.1479 -0.7801 -0.6079
vn -0.3678 -0.2764 -0.8879
vn -0.1475 -0.7801 -0.6080
vn -0.8879 -0.2764 -0.3678
vn -0.6008 -0.7856 -0.1477
vn -0.8879 -0.2764 0.3678
vn -0.6007 -0.7856 0.1480
vn -0.3678 -0.2764 0.8879
vn -0.1472 -0.7559 0.6379
vn 0.3526 0.3886 0.8512
vn 0.8513 0.3886 0.3526
vn 0.8512 0.3886 -0.3526
vn 0.3526 0.3887 -0.8512
vn -0.3526 0.3887 -0.8512
vn -0.8512 0.3886 -0.3526
vn -0.8513 0.3886 0.3526
vn -0.3526 0.3886 0.8513
vn -0.3015 0.9045 0.3015
vn -0.3015 -0.9045 0.3015
vn -0.3015 -0.9045 -0.3015
vn -0.3015 0.9045 -0.3015
vn 0.3015 0.9045 0.3015
vn 0.3015 -0.9045 0.3015
vn 0.3015 0.9045 -0.3015
vn 0.3015 -0.9045 -0.3015
vn -0.5773 -0.5774 -0.5774
vn -0.5774 -0.5774 0.5773
vn 0.5773 -0.5774 0.5773
vn 0.5774 -0.5773 -0.5774
usemtl column_a.001
s 1
f 1/1/1 2/2/2 3/3/3
f 1/1/1 3/3/3 4/4/4
f 5/5/5 6/6/6 7/7/7
f 5/5/5 7/7/7 8/8/8
f 9/9/9 10/10/10 6/6/6
f 9/9/9 6/6/6 5/5/5
f 11/11/11 12/12/12 10/10/10
f 11/11/11 10/10/10 9/9/9
f 8/13/8 7/14/7 12/12/12
f 8/13/8 12/12/12 11/11/11
f 11/11/11 13/15/13 14/16/14
f 11/11/11 14/16/14 8/13/8
f 9/9/9 15/17/15 13/18/13
f 9/9/9 13/18/13 11/11/11
f 5/5/5 16/19/16 15/20/15
f 5/5/5 15/20/15 9/9/9
f 8/8/8 14/21/14 16/22/16
f 8/8/8 16/22/16 5/5/5
f 17/23/17 18/24/18 14/16/14
f 17/23/17 14/16/14 13/15/13
f 19/25/19 17/26/17 13/18/13
f 19/25/19 13/18/13 15/17/15
f 20/27/20 19/28/19 15/20/15
f 20/27/20 15/20/15 16/19/16
f 18/29/18 20/30/20 16/22/16
f 18/29/18 16/22/16 14/21/14
f 21/31/21 22/32/22 23/33/23
f 21/31/21 23/33/23 24/34/24
f 25/35/25 26/36/26 22/32/22
f 25/35/25 22/32/22 21/31/21
f 27/37/27 28/38/28 26/39/26
f 27/37/27 26/39/26 25/40/25
f 29/41/29 30/42/30 28/38/28
f 29/41/29 28/38/28 27/37/27
f 31/43/31 32/44/32 30/42/30
f 31/43/31 30/42/30 29/41/29
f 33/45/33 34/46/34 32/44/32
f 33/45/33 32/44/32 31/43/31
f 35/47/35 36/48/36 34/46/34
f 35/47/35 34/46/34 33/45/33
f 24/34/24 23/33/23 36/48/36
f 24/34/24 36/48/36 35/47/35
f 37/49/37 38/50/38 39/51/39
f 37/49/37 39/51/39 40/52/40
f 41/53/41 42/54/42 38/50/38
f 41/53/41 38/50/38 37/49/37
f 43/55/43 44/56/44 42/54/42
f 43/55/43 42/54/42 41/53/41
f 45/57/45 46/58/46 44/56/44
f 45/57/45 44/56/44 43/55/43
f 47/59/47 48/60/48 46/58/46
f 47/59/47 46/58/46 45/57/45
f 49/61/49 50/62/50 48/60/48
f 49/61/49 48/60/48 47/59/47
f 51/63/51 52/64/52 50/62/50
f 51/63/51 50/62/50 49/61/49
f 40/65/40 39/66/39 52/64/52
f 40/65/40 52/64/52 51/63/51
f 53/67/53 54/68/54 55/69/55
f 53/67/53 55/69/55 56/70/56
f 57/71/57 58/72/58 54/68/54
f 57/71/57 54/68/54 53/67/53
f 59/73/59 60/74/60 58/72/58
f 59/73/59 58/72/58 57/71/57
f 61/75/61 62/76/62 60/74/60
f 61/75/61 60/74/60 59/73/59
f 63/77/63 64/78/64 62/76/62
f 63/77/63 62/76/62 61/75/61
f 65/79/65 66/80/66 64/78/64
f 65/79/65 64/78/64 63/77/63
f 67/81/67 68/82/68 66/80/66
f 67/81/67 66/80/66 65/79/65
f 56/83/56 55/84/55 68/82/68
f 56/83/56 68/82/68 67/81/67
f 19/25/19 54/85/54 58/86/58
f 19/25/19 58/86/58 17/26/17
f 19/25/19 55/87/55 54/85/54
f 19/28/19 20/27/20 68/88/68
f 19/28/19 68/88/68 55/89/55
f 20/30/20 66/90/66 68/91/68
f 20/30/20 18/29/18 64/92/64
f 20/30/20 64/92/64 66/90/66
f 18/29/18 62/93/62 64/92/64
f 17/23/17 60/94/60 62/95/62
f 17/23/17 62/95/62 18/24/18
f 17/26/17 58/86/58 60/96/60
f 69/97/21 70/98/24 23/99/23
f 69/97/21 23/99/23 22/100/22
f 71/101/25 69/97/21 22/100/22
f 71/101/25 22/100/22 26/102/26
f 72/103/27 71/101/25 26/102/26
f 72/103/27 26/102/26 28/104/28
f 73/105/29 72/103/27 28/104/28
f 73/105/29 28/104/28 30/106/30
f 74/107/31 73/105/29 30/106/30
f 74/107/31 30/106/30 32/108/32
f 75/109/33 74/107/31 32/108/32
f 75/109/33 32/108/32 34/110/34
f 76/111/35 75/109/33 34/110/34
f 76/111/35 34/110/34 36/112/36
f 70/113/24 76/111/35 36/112/36
f 70/113/24 36/112/36 23/114/23
f 37/49/37 40/52/40 70/98/24
f 37/49/37 70/98/24 69/97/21
f 41/53/41 37/49/37 69/97/21
f 41/53/41 69/97/21 71/101/25
f 43/55/43 41/53/41 71/101/25
f 43/55/43 71/101/25 72/103/27
f 45/57/45 43/55/43 72/103/27
f 45/57/45 72/103/27 73/105/29
f 47/59/47 45/57/45 73/105/29
f 47/59/47 73/105/29 74/107/31
f 49/61/49 47/59/47 74/107/31
f 49/61/49 74/107/31 75/109/33
f 51/63/51 49/61/49 75/109/33
f 51/63/51 75/109/33 76/111/35
f 40/65/40 51/63/51 76/111/35
f 40/65/40 76/111/35 70/113/24
f 53/67/53 56/70/56 77/115/69
f 53/67/53 77/115/69 78/116/70
f 57/71/57 53/67/53 78/116/70
f 57/71/57 78/116/70 79/117/71
f 59/73/59 57/71/57 79/117/71
f 59/73/59 79/117/71 80/118/72
f 61/75/61 59/73/59 80/118/72
f 61/75/61 80/118/72 81/119/73
f 63/77/63 61/75/61 81/119/73
f 63/77/63 81/119/73 82/120/74
f 65/79/65 63/77/63 82/120/74
f 65/79/65 82/120/74 83/121/75
f 67/81/67 65/79/65 83/121/75
f 67/81/67 83/121/75 84/122/76
f 56/83/56 67/81/67 84/122/76
f 56/83/56 84/122/76 77/123/69
f 78/116/70 77/115/69 39/51/39
f 78/116/70 39/51/39 38/50/38
f 79/117/71 78/116/70 38/50/38
f 79/117/71 38/50/38 42/54/42
f 80/118/72 79/117/71 42/54/42
f 80/118/72 42/54/42 44/56/44
f 81/119/73 80/118/72 44/56/44
f 81/119/73 44/56/44 46/58/46
f 82/120/74 81/119/73 46/58/46
f 82/120/74 46/58/46 48/60/48
f 83/121/75 82/120/74 48/60/48
f 83/121/75 48/60/48 50/62/50
f 84/122/76 83/121/75 50/62/50
f 84/122/76 50/62/50 52/64/52
f 77/123/69 84/122/76 52/64/52
f 77/123/69 52/64/52 39/66/39
f 85/124/77 86/125/78 87/126/79
f 85/124/77 87/126/79 88/127/80
f 89/128/81 90/129/82 86/125/78
f 89/128/81 86/125/78 85/124/77
f 91/130/83 92/131/84 90/129/82
f 91/130/83 90/129/82 89/128/81
f 88/132/80 87/133/79 92/131/84
f 88/132/80 92/131/84 91/130/83
f 1/134/1 4/135/4 93/136/85
f 1/134/1 93/136/85 94/137/86
f 2/138/2 1/134/1 94/137/86
f 2/138/2 94/137/86 95/139/87
f 3/140/3 2/141/2 95/142/87
f 3/140/3 95/142/87 96/143/88
f 4/135/4 3/140/3 96/143/88
f 4/135/4 96/143/88 93/136/85
f 6/6/6 85/124/77 88/127/80
f 6/6/6 88/127/80 7/7/7
f 10/10/10 89/128/81 85/124/77
f 10/10/10 85/124/77 6/6/6
f 12/12/12 91/130/83 89/128/81
f 12/12/12 89/128/81 10/10/10
f 7/14/7 88/132/80 91/130/83
f 7/14/7 91/130/83 12/12/12
f 93/136/85 87/144/79 86/145/78
f 93/136/85 86/145/78 94/137/86
f 96/143/88 92/146/84 87/147/79
f 96/143/88 87/147/79 93/136/85
f 95/142/87 90/148/82 92/149/84
f 95/142/87 92/149/84 96/143/88
f 94/137/86 86/150/78 90/151/82
f 94/137/86 90/151/82 95/139/87
