# Blender v2.79 (sub 0) OBJ File: ''
# www.blender.org
mtllib tipbox-s.mtl
o Cube
v 0.119126 -0.055771 -0.020944
v 0.065705 -0.004609 0.164875
v -0.123805 -0.053670 0.123901
v -0.070384 -0.104833 -0.061918
v 0.084025 0.131246 -0.082527
v 0.030604 0.182408 0.103292
v -0.158906 0.133347 0.062318
v -0.105485 0.082185 -0.123501
vn 0.1755 -0.9351 0.3079
vn -0.1755 0.9351 -0.3079
vn 0.9476 0.2453 0.2049
vn -0.2671 0.2558 0.9291
vn -0.9476 -0.2453 -0.2049
vn 0.2671 -0.2558 -0.9291
usemtl Material
s off
f 1//1 2//1 3//1 4//1
f 5//2 8//2 7//2 6//2
f 1//3 5//3 6//3 2//3
f 2//4 6//4 7//4 3//4
f 3//5 7//5 8//5 4//5
f 5//6 1//6 4//6 8//6
